<?xml version="1.0" standalone="no"?>
<!DOCTYPE svg PUBLIC "-//W3C//DTD SVG 20010904//EN"
 "http://www.w3.org/TR/2001/REC-SVG-20010904/DTD/svg10.dtd">
<svg version="1.0" xmlns="http://www.w3.org/2000/svg"
 width="50.000000pt" height="50.000000pt" viewBox="0 0 50.000000 50.000000"
 preserveAspectRatio="xMidYMid meet">

<g transform="translate(0.000000,50.000000) scale(0.100000,-0.100000)"
fill="#000000" stroke="none">
<path d="M175 404 c-117 -91 -115 -87 -115 -218 0 -74 4 -116 12 -124 16 -16
110 -16 126 0 7 7 12 38 12 70 l0 58 40 0 40 0 0 -58 c0 -32 5 -63 12 -70 16
-16 110 -16 126 0 13 13 17 212 6 243 -6 15 -173 156 -184 155 -3 -1 -36 -25
-75 -56z"/>
</g>
</svg>
