<?xml version="1.0" standalone="no"?>
<!DOCTYPE svg PUBLIC "-//W3C//DTD SVG 20010904//EN"
 "http://www.w3.org/TR/2001/REC-SVG-20010904/DTD/svg10.dtd">
<svg version="1.0" xmlns="http://www.w3.org/2000/svg"
 width="48.000000pt" height="48.000000pt" viewBox="0 0 48.000000 48.000000"
 preserveAspectRatio="xMidYMid meet">

<g transform="translate(0.000000,48.000000) scale(0.100000,-0.100000)"
fill="#000000" stroke="none">
<path d="M157 377 c-43 -34 -83 -70 -88 -79 -5 -10 -8 -68 -7 -130 l3 -113 58
-3 c75 -4 87 6 87 74 0 53 0 54 30 54 30 0 30 -1 30 -54 0 -68 12 -78 87 -74
l58 3 3 105 c2 58 0 115 -3 127 -4 18 -164 155 -176 152 -2 0 -39 -28 -82 -62z
m164 -32 l69 -56 0 -104 0 -105 -45 0 -45 0 0 49 c0 54 -9 65 -58 76 -47 10
-62 -7 -62 -71 l0 -54 -45 0 -45 0 0 104 0 105 68 55 c37 31 73 56 80 56 7 0
44 -25 83 -55z"/>
</g>
</svg>
