<?xml version="1.0" standalone="no"?>
<!DOCTYPE svg PUBLIC "-//W3C//DTD SVG 20010904//EN"
 "http://www.w3.org/TR/2001/REC-SVG-20010904/DTD/svg10.dtd">
<svg version="1.0" xmlns="http://www.w3.org/2000/svg"
 width="512.000000pt" height="512.000000pt" viewBox="0 0 512.000000 512.000000"
 preserveAspectRatio="xMidYMid meet">

<g transform="translate(0.000000,512.000000) scale(0.100000,-0.100000)"
fill="#000000" stroke="none">
<path d="M4262 1703 c-7 -3 -39 -39 -70 -82 -32 -42 -145 -191 -252 -331 -106
-140 -194 -256 -195 -258 -1 -1 -62 68 -135 153 -73 86 -141 160 -151 165 -54
29 -119 -12 -119 -75 0 -36 -5 -30 273 -360 32 -38 68 -78 79 -87 26 -23 77
-23 104 0 11 9 72 85 134 167 63 83 148 195 190 250 257 337 270 355 270 386
0 57 -69 96 -128 72z"/>
</g>
</svg>
